/* XPM */
static char *pronterface[] = {
/* columns rows colors chars-per-pixel */
"32 32 120 2",
"   c #360205",
".  c #3C0205",
"X  c #420105",
"o  c #4D0206",
"O  c #530307",
"+  c #590207",
"@  c #500408",
"#  c #5F0308",
"$  c #630207",
"%  c #640308",
"&  c #6B0309",
"*  c #65090D",
"=  c #750309",
"-  c #7C040A",
";  c #631014",
":  c #751D22",
">  c #7F2025",
",  c #85040B",
"<  c #8B050C",
"1  c #93050C",
"2  c #9B050D",
"3  c #80151B",
"4  c #A5050D",
"5  c #AD060E",
"6  c #B4050F",
"7  c #B8050E",
"8  c #A10B13",
"9  c #BD0610",
"0  c #BC0A14",
"q  c #AE181F",
"w  c #BA131C",
"e  c #A51A21",
"r  c #803B3E",
"t  c #B8242B",
"y  c #CB030D",
"u  c #D7030E",
"i  c #D8040F",
"p  c #C40610",
"a  c #CB0611",
"s  c #D50712",
"d  c #D80712",
"f  c #D50A15",
"g  c #D80A15",
"h  c #D70E19",
"j  c #D90E19",
"k  c #C0131C",
"l  c #DA121D",
"z  c #DA1621",
"x  c #D61B25",
"c  c #DB1A24",
"v  c #DB1E28",
"b  c #DC232D",
"n  c #DD2630",
"m  c #DE2B34",
"M  c #DE2F38",
"N  c #DF323B",
"B  c #DF3740",
"V  c #D23D45",
"C  c #E03740",
"Z  c #E03A43",
"A  c #E13F48",
"S  c #B64E53",
"D  c #B55F64",
"F  c #AF7477",
"G  c #DE464E",
"H  c #E2444D",
"J  c #E24B53",
"K  c #E35057",
"L  c #E4535B",
"P  c #E5585F",
"I  c #E55D64",
"U  c #E66067",
"Y  c #E6656C",
"T  c #E5686E",
"R  c #E76970",
"E  c #E86C72",
"W  c #E97076",
"Q  c #E9757B",
"!  c #EA787E",
"~  c #E27A80",
"^  c #EB7D83",
"/  c #BA8F91",
"(  c #DC8F93",
")  c #EB8187",
"_  c #EC858B",
"`  c #EC888E",
"'  c #ED8D92",
"]  c #EE9297",
"[  c #EE959A",
"{  c #EF999E",
"}  c #EF9CA0",
"|  c #F09EA2",
" . c #D5A0A3",
".. c #E9A3A7",
"X. c #F0A1A5",
"o. c #F1A5A9",
"O. c #F2AAAD",
"+. c #F2ADB1",
"@. c #F4B8BB",
"#. c #F5BEC1",
"$. c #DDC4C5",
"%. c #E7CDCE",
"&. c #EECACC",
"*. c #F5C1C4",
"=. c #F6C6C9",
"-. c #F7CACC",
";. c #F7CED0",
":. c #ECDCDD",
">. c #F8D2D4",
",. c #F9D9DB",
"<. c #FADFE0",
"1. c #EFE0E1",
"2. c #FBE3E4",
"3. c #FAE7E8",
"4. c #F2E8E9",
"5. c #FCECED",
"6. c #FDF4F5",
"7. c #FEF7F8",
"8. c #FFFEFE",
"9. c None",
/* pixels */
"9.9.9.9.9.9.9.9.9.9.9.9.o.X.{ [ ' _ ^ Q 9.9.9.9.9.9.9.9.9.9.9.9.",
"9.9.9.9.9.9.9.9.9.+.O.o.| [ ' ` ) ^ ! E R I P 9.9.9.9.9.9.9.9.9.",
"9.9.9.9.9.9.9.+.+.o.| [ ` ^ Q E R Y U U I P K H Z 9.9.9.9.9.9.9.",
"9.9.9.9.9.9.+.O.X.[ ) E U L J H H H H H J J H A B m 9.9.9.9.9.9.",
"9.9.9.9.9.O.o.{ _ E K H M b v z l z c b m M B N N b z 9.9.9.9.9.",
"9.9.9.9.o.X.] ! I A n z j g d d d d d j j z v n b v l f 9.9.9.9.",
"9.9.9.| | ' W K M c j g d d d d d d d g d g l l c z h s a 9.9.9.",
"9.9.[ [ ' W J m l j d d d d d d d d d d d d d j h l g a p 7 9.9.",
"9.9.' ' W K M z g g d d d d d g d d d d d d d d d d s a 9 5 9.9.",
"9._ _ ! I N z g d d d d d d d d d d z b l i l M J H b p 6 4 2 9.",
"9.^ ! Y H I { J d d d d d d d d d i Q 3.R M +.5.8.7.,.! w 4 1 9.",
"9.W E K H -.8.>.c d d d d d d d d i ^ 8.+.;.,.{ ` @.7.8.( 8 < 9.",
"E R I H M #.8.-.c d d d d d d d d u Q 8.7.*.M d u l ! 7.6.S , = ",
"I I K C c C ! C d d u u u u u d d u Q 8.5.H u d d s h +.8. ., & ",
"L K H N l d u d i m ) ) _ _ _ E l u Q 8.=.l d d d d i Y 8.%.: $ ",
"J H A m l d d d u J 5.6.6.5.6.-.c u ! 8.@.g d d d d i H 7.1.3 + ",
"Z A N b l d d d d z N C C C C M g u Q 8.@.g d d d d i G 7.:.: o ",
"M M m b h d d d d d d d i i i d d u ! 8.#.h d d d d u T 8.$.; X ",
"n b b v g g l g d d d d d d d d d u Q 8.2.N u d d i h +.8./ o . ",
"l z z z j E =.! g d d d d d g d d u Q 8.8.+.b u i l ! 6.4.r .   ",
"9.g h h c ;.8.,.v d d d d d d d d i Q 8.2.2.,.] ` @.6.6.F O . 9.",
"9.s s f h ..7.+.l d d d d d d d d u ! 8.@.J *.6.8.6.&.D * .   9.",
"9.p 7 a s x H v d d d d d d d d d u Q 8.@.g l B J V q = o     9.",
"9.9.6 6 7 p u s d d d d d d d d d u Q 8.@.h d i y 6 , O .   9.9.",
"9.9.4 4 5 6 p a f s d d d d d d d u ! 8.@.f f a 6 < # .     9.9.",
"9.9.9.1 1 4 5 9 p s s d d d d s d u Q 8.@.g p 5 < # .     9.9.9.",
"9.9.9.9., , 1 2 5 9 a s s f d s d u R 3...0 4 - + .     9.9.9.9.",
"9.9.9.9.9.- = - < 2 4 5 9 p a a a p w t e < & o .     9.9.9.9.9.",
"9.9.9.9.9.9.% % % = - , < 1 2 2 1 1 , = $ o .       9.9.9.9.9.9.",
"9.9.9.9.9.9.9.+ O @ @ + % % % % $ + O X . .       9.9.9.9.9.9.9.",
"9.9.9.9.9.9.9.9.9.X . . . . . . . .           9.9.9.9.9.9.9.9.9.",
"9.9.9.9.9.9.9.9.9.9.9.9.  .             9.9.9.9.9.9.9.9.9.9.9.9."
};
